<?xml version="1.0" encoding="UTF-8"?>
<!DOCTYPE svg PUBLIC "-//W3C//DTD SVG 1.1//EN" "http://www.w3.org/Graphics/SVG/1.1/DTD/svg11.dtd">
<!-- Creator: CorelDRAW 2019 (64-Bit) -->
<svg xmlns="http://www.w3.org/2000/svg" xml:space="preserve" width="50mm" height="24mm" version="1.1" style="shape-rendering:geometricPrecision; text-rendering:geometricPrecision; image-rendering:optimizeQuality; fill-rule:evenodd; clip-rule:evenodd"
viewBox="0 0 5000 2400"
 xmlns:xlink="http://www.w3.org/1999/xlink">
 <defs>
  <style type="text/css">
   <![CDATA[
    .fil0 {fill:#169ECD}
    .fil1 {fill:#898989;fill-rule:nonzero}
   ]]>
  </style>
 </defs>
 <g id="Ebene_x0020_1">
  <metadata id="CorelCorpID_0Corel-Layer"/>
  <g id="_1950008843008">
   <path class="fil0" d="M1576.08 4.88l1808.24 0 0 889.04c-84.74,-29.11 -171.63,-31.25 -293.13,-16.84 -206.32,24.47 -371.94,161.92 -563.53,164.57 -160.3,2.21 -241.96,-67.7 -375.16,-155.06 -226.93,-148.84 -386.28,-22.2 -576.42,84.42l0 -966.13zm1808.24 960.21l0 416.52 -1808.24 0 0 -199.97c120.99,-67.87 265.68,-193.26 392.8,-189.57 87.74,2.55 165.5,73.1 245.1,114.26 256.99,132.86 414.77,78.82 654.51,-42.63 156.66,-79.35 330.52,-129.3 515.83,-98.61z"/>
   <path class="fil1" d="M682.89 1751.86l-236.1 0 0 29.45c66.78,2.45 90.44,14.9 97.1,59.07 3.16,25.59 5.61,69.23 5.61,162.83l0 243.99 -2.45 0 -406.65 -495.34 -140.23 0 0 29.45c46.63,4.55 69.24,11.22 89.4,34.88 17.35,24.19 19.45,24.19 19.45,95.53l0 213.66c0,87.82 -4.03,135.14 -6.66,165.99 -6.13,47.85 -30.85,60.12 -86.76,62.23l0 30.14 234.35 0 0 -30.14c-64.68,-4.21 -88.34,-14.38 -95,-64.33 -1.06,-28.75 -4.21,-76.07 -4.21,-163.89l0 -242.41 2.1 0 408.93 508.31 30.85 0 0 -388.24c0,-93.43 1.93,-137.07 3.51,-166.87 5.6,-39.96 31.9,-52.41 86.76,-54.86l0 -29.45z"/>
   <path id="1" class="fil1" d="M1021.89 1737.31c-200.52,0 -324.27,161.96 -324.27,338.47 0,188.42 142.86,322.69 311.47,322.69 177.91,0 324.8,-127.61 324.8,-338.47 0,-196.14 -151.09,-322.69 -311.47,-322.69l-0.53 0zm-22.09 38.56c127.96,0 241.54,104.47 241.54,309.72 0,187.38 -100.08,274.32 -210.16,274.32 -137.24,0 -242.06,-130.06 -242.06,-312.18 0,-184.92 103.76,-271.86 209.63,-271.86l1.05 0z"/>
   <path id="2" class="fil1" d="M1979.28 1751.86l-221.73 0 0 29.45c79.93,9.11 86.59,14.9 68.18,69.23 -27.16,87.82 -107.27,291.67 -158.1,416.47l-1.05 0c-70.29,-179.66 -140.05,-365.11 -163.71,-431.89 -15.43,-40.49 -12.27,-46.63 56.97,-53.81l0 -29.45 -230.5 0 0 29.45c58.02,6.66 74.5,12.27 102.19,80.63 53.99,140.04 136.02,353.71 200.7,530.39l28.74 0c72.39,-199.29 178.09,-450.29 202.27,-509.36 36.99,-86.76 48.21,-93.6 116.04,-101.66l0 -29.45z"/>
   <path id="3" class="fil1" d="M2482.35 2383.74l0 -30.14c-64.16,-6.31 -78.53,-14.55 -106.4,-95.71 -60.47,-164.23 -129.35,-358.62 -188.42,-520.75l-29.63 9.81 -199.29 505.33c-34.35,87.82 -47.68,92.55 -110.43,101.32l0 30.14 214.72 0 0 -30.14c-73.44,-6.84 -83.26,-14.55 -61.17,-79.76 14.37,-40.13 26.64,-79.75 41.01,-119.19l213.67 0 53.46 146.89c12.27,37.51 4.56,44.34 -61.17,52.06l0 30.14 233.65 0zm-240.31 -273.26l-182.29 0c30.32,-82.55 61.17,-168.62 92.37,-254.33l2.1 0 87.82 254.33z"/>
   <path id="4" class="fil1" d="M2565.44 2395.49c31.37,0 55.56,-21.04 55.56,-55.92 0,-30.85 -24.19,-54.51 -55.56,-54.51 -29.27,0 -53.46,23.66 -53.46,54.51 0,34.88 24.19,55.92 52.41,55.92l1.05 0z"/>
   <path id="5" class="fil1" d="M2673.43 1752.04l0 29.79c73.44,4.56 83.26,7.19 83.26,92.9l0 385.97c0,79.4 -8.77,86.59 -88.87,92.9l0 30.14 262.75 0 0 -30.14c-91.32,-6.31 -100.61,-9.82 -100.61,-92.9l0 -151.27 73.79 19.81c11.39,1.05 30.32,1.05 45.92,-0.88 93.78,-11.22 188.43,-73.79 188.43,-200.17 0,-63.62 -25.77,-107.44 -61.17,-135.14 -40.14,-29.8 -96.93,-41.01 -163.89,-41.01l-239.61 0zm156.53 91.32c0,-27.7 2.62,-38.92 11.39,-46.63 5.78,-6.66 28.92,-12.44 57.32,-12.44 85.53,0 152.49,46.8 152.49,150.04 0,119.19 -76.77,154.07 -145.83,154.07 -34.01,0 -61.88,-8.24 -75.37,-13.32l0 -231.72z"/>
   <path id="6" class="fil1" d="M3496.56 1737.31c-200.52,0 -324.27,161.96 -324.27,338.47 0,188.42 142.86,322.69 311.47,322.69 177.91,0 324.8,-127.61 324.8,-338.47 0,-196.14 -151.09,-322.69 -311.47,-322.69l-0.53 0zm-22.09 38.56c127.96,0 241.54,104.47 241.54,309.72 0,187.38 -100.08,274.32 -210.16,274.32 -137.24,0 -242.06,-130.06 -242.06,-312.18 0,-184.92 103.76,-271.86 209.63,-271.86l1.05 0z"/>
   <path id="7" class="fil1" d="M4189.46 1737.31c-200.52,0 -324.27,161.96 -324.27,338.47 0,188.42 142.86,322.69 311.47,322.69 177.91,0 324.8,-127.61 324.8,-338.47 0,-196.14 -151.09,-322.69 -311.47,-322.69l-0.53 0zm-22.09 38.56c127.96,0 241.54,104.47 241.54,309.72 0,187.38 -100.08,274.32 -210.16,274.32 -137.24,0 -242.06,-130.06 -242.06,-312.18 0,-184.92 103.76,-271.86 209.63,-271.86l1.05 0z"/>
   <path id="8" class="fil1" d="M4967.89 2226.52c-15.42,44.69 -32.25,73.97 -50.31,93.6 -22.08,23.66 -54.33,28.22 -107.79,28.22 -43.12,0 -77.48,-1.58 -96.58,-12.27 -17.88,-11.39 -23.66,-29.27 -23.66,-82.21l0 -380.18c0,-82.21 10.34,-86.76 89.39,-92.37l0 -29.45 -251.53 0 0 29.45c82.03,6.66 88.87,11.22 88.87,92.37l0 386.84c0,82.21 -8.77,87.82 -89.92,92.9l0 30.32 438.02 0c8.24,-29.79 29.28,-123.22 34.89,-152.49l-31.38 -4.73z"/>
  </g>
 </g>
</svg>
